<svg width="257" height="161" viewBox="0 0 257 161" fill="none" xmlns="http://www.w3.org/2000/svg">
<g clip-path="url(#clip0_140_210)">
<path d="M245.073 161H27.8543C25.9226 161 24.0701 160.235 22.7042 158.874C21.3383 157.512 20.5709 155.665 20.5709 153.74C99.3125 144.618 176.574 144.618 252.356 153.74C252.356 155.665 251.589 157.512 250.223 158.874C248.857 160.235 247.004 161 245.073 161Z" fill="#CCCCCC"/>
<path d="M252.356 154.167L20.5709 153.74L47.434 108.686L47.5625 108.472V9.17742C47.5624 7.9722 47.8005 6.77876 48.2632 5.66526C48.7258 4.55175 49.404 3.54001 50.259 2.68778C51.114 1.83556 52.129 1.15956 53.2461 0.698387C54.3632 0.237214 55.5605 -0.000100679 56.7697 3.20409e-08H214.872C216.081 -0.000100679 217.279 0.237214 218.396 0.698387C219.513 1.15956 220.528 1.83556 221.383 2.68778C222.238 3.54001 222.916 4.55175 223.379 5.66526C223.841 6.77876 224.079 7.9722 224.079 9.17742V109.155L252.356 154.167Z" fill="#E6E6E6"/>
<path d="M56.5597 6.40576C55.7646 6.40665 55.0023 6.72189 54.4401 7.28231C53.8778 7.84274 53.5616 8.60259 53.5607 9.39515V99.931C53.5616 100.724 53.8779 101.483 54.4401 102.044C55.0023 102.604 55.7646 102.919 56.5597 102.92H216.367C217.162 102.919 217.925 102.604 218.487 102.044C219.049 101.483 219.365 100.724 219.366 99.931V9.39515C219.365 8.6026 219.049 7.84277 218.487 7.28235C217.925 6.72193 217.162 6.40669 216.367 6.40576H56.5597Z" fill="white"/>
<path d="M57.61 114.878C57.3643 114.878 57.1238 114.949 56.9169 115.081C56.71 115.213 56.5453 115.401 56.4423 115.624L48.1649 133.56C48.0748 133.755 48.0354 133.97 48.0503 134.184C48.0652 134.398 48.134 134.606 48.2502 134.787C48.3665 134.967 48.5266 135.116 48.7157 135.219C48.9048 135.323 49.1169 135.377 49.3324 135.377H223.401C223.62 135.377 223.835 135.321 224.027 135.214C224.218 135.108 224.379 134.955 224.494 134.769C224.609 134.583 224.675 134.371 224.685 134.153C224.695 133.935 224.648 133.718 224.55 133.522L215.553 115.586C215.447 115.373 215.283 115.194 215.08 115.068C214.877 114.943 214.642 114.877 214.404 114.878L57.61 114.878Z" fill="#CCCCCC"/>
<path d="M135.821 4.91113C136.886 4.91113 137.749 4.05073 137.749 2.98938C137.749 1.92802 136.886 1.06763 135.821 1.06763C134.756 1.06763 133.893 1.92802 133.893 2.98938C133.893 4.05073 134.756 4.91113 135.821 4.91113Z" fill="white"/>
<path d="M118.711 138.793C118.429 138.794 118.154 138.887 117.93 139.058C117.706 139.229 117.544 139.469 117.47 139.741L115.394 147.428C115.343 147.618 115.336 147.817 115.374 148.01C115.413 148.203 115.495 148.385 115.615 148.541C115.735 148.697 115.889 148.823 116.066 148.91C116.243 148.997 116.438 149.043 116.635 149.043H156.121C156.326 149.043 156.528 148.994 156.71 148.9C156.893 148.806 157.05 148.671 157.168 148.504C157.287 148.338 157.364 148.146 157.393 147.944C157.423 147.741 157.403 147.535 157.336 147.342L154.666 139.655C154.579 139.404 154.415 139.185 154.197 139.031C153.979 138.876 153.719 138.793 153.452 138.793H118.711Z" fill="#CCCCCC"/>
<path d="M224.079 106.977V108.686H47.434L47.5668 108.472V106.977H224.079Z" fill="#CCCCCC"/>
<path d="M202.276 110.891C202.207 110.891 202.14 110.913 202.085 110.955C202.031 110.997 201.992 111.055 201.974 111.121L201.468 112.993C201.455 113.04 201.454 113.088 201.463 113.135C201.472 113.182 201.492 113.226 201.522 113.264C201.551 113.302 201.589 113.333 201.632 113.354C201.675 113.375 201.722 113.387 201.77 113.387H211.386C211.436 113.387 211.485 113.375 211.529 113.352C211.573 113.329 211.612 113.296 211.641 113.255C211.67 113.215 211.688 113.168 211.695 113.119C211.703 113.07 211.698 113.019 211.681 112.972L211.031 111.101C211.01 111.039 210.97 110.986 210.917 110.948C210.864 110.911 210.801 110.891 210.736 110.891H202.276Z" fill="#CCCCCC"/>
<path d="M188.236 110.891C188.167 110.891 188.1 110.913 188.046 110.955C187.991 110.997 187.952 111.055 187.934 111.121L187.428 112.993C187.416 113.04 187.414 113.088 187.423 113.135C187.433 113.182 187.453 113.226 187.482 113.264C187.511 113.302 187.549 113.333 187.592 113.354C187.635 113.375 187.682 113.387 187.73 113.387H197.346C197.396 113.387 197.445 113.375 197.489 113.352C197.534 113.329 197.572 113.296 197.601 113.255C197.63 113.215 197.649 113.168 197.656 113.119C197.663 113.07 197.658 113.019 197.642 112.972L196.992 111.101C196.97 111.039 196.93 110.986 196.877 110.948C196.824 110.911 196.761 110.891 196.696 110.891H188.236Z" fill="#CCCCCC"/>
<path d="M147.559 122.785H148.313L146.806 22.3772H146.052L146.082 24.3803H129.192L129.222 22.3772H128.468L126.961 122.785H127.714L127.812 116.274H147.462L147.559 122.785ZM146.473 50.4212H128.801L128.985 38.1519H146.289L146.473 50.4212ZM146.485 51.1724L146.669 63.4416H128.605L128.789 51.1724H146.485ZM146.68 64.1928L146.864 76.462H128.41L128.594 64.1928H146.68ZM146.875 77.2132L147.06 89.4825H128.214L128.398 77.2132H146.875ZM147.071 90.2336L147.255 102.503H128.019L128.203 90.2336H147.071ZM146.094 25.1315L146.278 37.4008H128.996L129.18 25.1315H146.094ZM127.823 115.523L128.008 103.254H147.266L147.45 115.523H127.823Z" fill="#3F3D56"/>
<path d="M133.904 56.9608C140.69 56.9608 146.192 51.4768 146.192 44.712C146.192 37.9471 140.69 32.4631 133.904 32.4631C127.117 32.4631 121.615 37.9471 121.615 44.712C121.615 51.4768 127.117 56.9608 133.904 56.9608Z" fill="#2F2E41"/>
<path d="M141.132 53.177L137.458 53.8398L138.65 60.4003L142.323 59.7374L141.132 53.177Z" fill="#2F2E41"/>
<path d="M133.785 54.5027L130.111 55.1655L131.303 61.726L134.976 61.0631L133.785 54.5027Z" fill="#2F2E41"/>
<path d="M133.253 63.1064C134.564 61.9996 135.289 60.7051 134.873 60.215C134.457 59.7249 133.056 60.2248 131.745 61.3316C130.434 62.4384 129.709 63.733 130.125 64.2231C130.541 64.7132 131.942 64.2132 133.253 63.1064Z" fill="#2F2E41"/>
<path d="M140.447 61.8086C141.758 60.7017 142.483 59.4072 142.067 58.9171C141.651 58.427 140.25 58.9269 138.939 60.0338C137.628 61.1406 136.902 62.4351 137.319 62.9252C137.735 63.4153 139.136 62.9154 140.447 61.8086Z" fill="#2F2E41"/>
<path d="M133.043 45.9022C135.363 45.9022 137.243 44.0279 137.243 41.7159C137.243 39.4038 135.363 37.5295 133.043 37.5295C130.724 37.5295 128.844 39.4038 128.844 41.7159C128.844 44.0279 130.724 45.9022 133.043 45.9022Z" fill="white"/>
<path d="M131.317 41.6107C132.09 41.6107 132.717 40.9859 132.717 40.2153C132.717 39.4446 132.09 38.8198 131.317 38.8198C130.544 38.8198 129.917 39.4446 129.917 40.2153C129.917 40.9859 130.544 41.6107 131.317 41.6107Z" fill="#3F3D56"/>
<path d="M143.598 31.3867C143.782 26.852 139.861 23.011 134.84 22.8077C129.818 22.6044 125.598 26.1157 125.413 30.6504C125.228 35.1851 128.719 36.2154 133.74 36.4187C138.762 36.6221 143.413 35.9214 143.598 31.3867Z" fill="black"/>
<path d="M128.546 43.8487C128.784 42.8137 126.295 41.362 122.988 40.6063C119.68 39.8506 116.806 40.077 116.568 41.112C116.33 42.147 118.818 43.5987 122.126 44.3544C125.434 45.1101 128.308 44.8837 128.546 43.8487Z" fill="#2F2E41"/>
<path d="M152.668 47.8472C152.906 46.8122 150.417 45.3606 147.11 44.6049C143.802 43.8492 140.928 44.0756 140.69 45.1106C140.452 46.1456 142.94 47.5972 146.248 48.3529C149.555 49.1087 152.43 48.8822 152.668 47.8472Z" fill="#2F2E41"/>
<path d="M137.279 49.5392C137.345 49.8999 137.339 50.2701 137.262 50.6285C137.184 50.987 137.037 51.3268 136.828 51.6284C136.618 51.9301 136.352 52.1877 136.042 52.3865C135.733 52.5853 135.388 52.7214 135.026 52.7871C134.664 52.8527 134.293 52.8467 133.933 52.7692C133.573 52.6918 133.233 52.5444 132.93 52.3356C132.628 52.1268 132.37 51.8607 132.17 51.5524C131.971 51.2441 131.835 50.8997 131.769 50.5388L131.768 50.5334C131.493 49.0167 132.669 48.48 134.191 48.2055C135.713 47.9309 137.003 48.0224 137.279 49.5392Z" fill="white"/>
<path d="M92.2831 86.3134C93.525 83.0746 93.7049 80.1339 92.6848 79.7453C91.6648 79.3567 89.831 81.6672 88.5891 84.9061C87.3471 88.1449 87.1672 91.0856 88.1873 91.4742C89.2074 91.8628 91.0411 89.5523 92.2831 86.3134Z" fill="#2F2E41"/>
<path d="M91.227 97.1032C92.3414 90.258 87.6778 83.8084 80.8104 82.6976C73.9431 81.5867 67.4726 86.2354 66.3582 93.0805C65.2438 99.9257 69.9074 106.375 76.7748 107.486C83.6421 108.597 90.1126 103.948 91.227 97.1032Z" fill="#2F2E41"/>
<path d="M76.8791 104.946H73.0521V111.781H76.8791V104.946Z" fill="#2F2E41"/>
<path d="M84.533 104.946H80.7061V111.781H84.533V104.946Z" fill="#2F2E41"/>
<path d="M76.2413 113.052C78.0026 113.052 79.4304 112.519 79.4304 111.86C79.4304 111.202 78.0026 110.668 76.2413 110.668C74.48 110.668 73.0521 111.202 73.0521 111.86C73.0521 112.519 74.48 113.052 76.2413 113.052Z" fill="#2F2E41"/>
<path d="M83.8952 112.893C85.6565 112.893 87.0843 112.359 87.0843 111.701C87.0843 111.043 85.6565 110.509 83.8952 110.509C82.1339 110.509 80.7061 111.043 80.7061 111.701C80.7061 112.359 82.1339 112.893 83.8952 112.893Z" fill="#2F2E41"/>
<path d="M66.573 83.4147C65.5559 78.8741 68.8073 74.286 73.8353 73.1669C78.8633 72.0479 83.7639 74.8215 84.7811 79.3621C85.7982 83.9027 82.466 85.5774 77.4379 86.6964C72.4099 87.8155 67.5902 87.9553 66.573 83.4147Z" fill="black"/>
<path d="M70.295 91.956C70.763 90.9725 68.5944 88.9707 65.4514 87.4848C62.3084 85.9989 59.3811 85.5917 58.9132 86.5752C58.4452 87.5587 60.6137 89.5605 63.7567 91.0464C66.8997 92.5322 69.827 92.9395 70.295 91.956Z" fill="#2F2E41"/>
<path d="M24.2483 120.362C31.2055 120.362 36.8454 114.74 36.8454 107.806C36.8454 100.871 31.2055 95.2493 24.2483 95.2493C17.2911 95.2493 11.6512 100.871 11.6512 107.806C11.6512 114.74 17.2911 120.362 24.2483 120.362Z" fill="#2F2E41"/>
<path d="M22.3348 117.66H18.5078V124.495H22.3348V117.66Z" fill="#2F2E41"/>
<path d="M29.9887 117.66H26.1618V124.495H29.9887V117.66Z" fill="#2F2E41"/>
<path d="M21.697 125.766C23.4583 125.766 24.8861 125.233 24.8861 124.574C24.8861 123.916 23.4583 123.382 21.697 123.382C19.9356 123.382 18.5078 123.916 18.5078 124.574C18.5078 125.233 19.9356 125.766 21.697 125.766Z" fill="#2F2E41"/>
<path d="M29.3509 125.607C31.1122 125.607 32.54 125.074 32.54 124.415C32.54 123.757 31.1122 123.223 29.3509 123.223C27.5896 123.223 26.1618 123.757 26.1618 124.415C26.1618 125.074 27.5896 125.607 29.3509 125.607Z" fill="#2F2E41"/>
<path d="M24.5672 108.918C26.945 108.918 28.8725 106.997 28.8725 104.627C28.8725 102.257 26.945 100.335 24.5672 100.335C22.1894 100.335 20.2619 102.257 20.2619 104.627C20.2619 106.997 22.1894 108.918 24.5672 108.918Z" fill="white"/>
<path d="M24.5672 106.057C25.3598 106.057 26.0023 105.417 26.0023 104.627C26.0023 103.837 25.3598 103.196 24.5672 103.196C23.7746 103.196 23.1321 103.837 23.1321 104.627C23.1321 105.417 23.7746 106.057 24.5672 106.057Z" fill="#3F3D56"/>
<path d="M12.0287 96.1286C11.0115 91.588 14.263 86.9999 19.291 85.8808C24.319 84.7617 29.2196 87.5354 30.2367 92.076C31.2539 96.6166 27.9216 98.2912 22.8936 99.4103C17.8656 100.529 13.0458 100.669 12.0287 96.1286Z" fill="#E6E6E6"/>
<path d="M33.4334 62.9477C34.6754 59.7089 34.8552 56.7682 33.8352 56.3796C32.8151 55.991 30.9814 58.3015 29.7394 61.5403C28.4975 64.7792 28.3176 67.7198 29.3377 68.1085C30.3577 68.4971 32.1915 66.1865 33.4334 62.9477Z" fill="#2F2E41"/>
<path d="M32.3774 73.7372C33.4918 66.8921 28.8281 60.4424 21.9608 59.3316C15.0934 58.2208 8.62292 62.8694 7.50851 69.7146C6.39409 76.5598 11.0578 83.0094 17.9251 84.1202C24.7925 85.231 31.2629 80.5824 32.3774 73.7372Z" fill="#2F2E41"/>
<path d="M18.0295 81.5801H14.2025V88.4146H18.0295V81.5801Z" fill="#2F2E41"/>
<path d="M25.6834 81.5801H21.8564V88.4146H25.6834V81.5801Z" fill="#2F2E41"/>
<path d="M17.3916 89.6861C19.1529 89.6861 20.5808 89.1524 20.5808 88.4941C20.5808 87.8357 19.1529 87.302 17.3916 87.302C15.6303 87.302 14.2025 87.8357 14.2025 88.4941C14.2025 89.1524 15.6303 89.6861 17.3916 89.6861Z" fill="#2F2E41"/>
<path d="M25.0456 89.5274C26.8069 89.5274 28.2347 88.9937 28.2347 88.3354C28.2347 87.677 26.8069 87.1433 25.0456 87.1433C23.2842 87.1433 21.8564 87.677 21.8564 88.3354C21.8564 88.9937 23.2842 89.5274 25.0456 89.5274Z" fill="#2F2E41"/>
<path d="M20.2618 72.8385C22.6396 72.8385 24.5672 70.9171 24.5672 68.547C24.5672 66.177 22.6396 64.2556 20.2618 64.2556C17.8841 64.2556 15.9565 66.177 15.9565 68.547C15.9565 70.9171 17.8841 72.8385 20.2618 72.8385Z" fill="white"/>
<path d="M20.2619 69.9777C21.0544 69.9777 21.697 69.3372 21.697 68.5472C21.697 67.7571 21.0544 67.1167 20.2619 67.1167C19.4693 67.1167 18.8267 67.7571 18.8267 68.5472C18.8267 69.3372 19.4693 69.9777 20.2619 69.9777Z" fill="#3F3D56"/>
<path d="M7.72334 60.0487C6.70619 55.5082 9.95763 50.9201 14.9856 49.801C20.0137 48.6819 24.9142 51.4556 25.9314 55.9962C26.9485 60.5368 23.6163 62.2114 18.5883 63.3305C13.5603 64.4496 8.7405 64.5894 7.72334 60.0487Z" fill="black"/>
<path d="M11.4453 68.59C11.9133 67.6065 9.74476 65.6047 6.60175 64.1188C3.45875 62.633 0.531472 62.2257 0.0635036 63.2092C-0.404465 64.1927 1.76408 66.1945 4.90709 67.6804C8.05009 69.1663 10.9774 69.5735 11.4453 68.59Z" fill="#2F2E41"/>
<path d="M13.7553 76.2556C13.7553 77.4846 16.9298 79.9113 20.4525 79.9113C23.9751 79.9113 27.2779 76.4514 27.2779 75.2225C27.2779 73.9936 23.9751 75.4609 20.4525 75.4609C16.9299 75.4609 13.7553 75.0267 13.7553 76.2556Z" fill="white"/>
<path d="M32.3279 23.7817C32.0953 23.782 31.8722 23.8742 31.7077 24.0382C31.5432 24.2022 31.4507 24.4245 31.4504 24.6564V60.809C31.4507 61.0409 31.5432 61.2632 31.7077 61.4272C31.8722 61.5912 32.0953 61.6834 32.3279 61.6837H116.275C116.507 61.6834 116.73 61.5912 116.895 61.4272C117.059 61.2632 117.152 61.0409 117.152 60.809V24.6564C117.152 24.4245 117.059 24.2022 116.895 24.0382C116.73 23.8742 116.507 23.782 116.275 23.7817H32.3279Z" fill="black"/>
<path d="M54.9948 51.2229C59.6991 51.2229 63.5127 47.4216 63.5127 42.7325C63.5127 38.0434 59.6991 34.2422 54.9948 34.2422C50.2905 34.2422 46.477 38.0434 46.477 42.7325C46.477 47.4216 50.2905 51.2229 54.9948 51.2229Z" fill="white"/>
<path d="M74.2193 41.6029C73.9581 41.6072 73.7089 41.7137 73.5256 41.8994C73.3424 42.0851 73.2397 42.3351 73.2397 42.5956C73.2397 42.8561 73.3424 43.1062 73.5256 43.2919C73.7089 43.4776 73.9581 43.584 74.2193 43.5883H101.113C101.244 43.5905 101.374 43.5671 101.496 43.5192C101.618 43.4713 101.729 43.4 101.823 43.3094C101.917 43.2187 101.992 43.1104 102.044 42.9908C102.096 42.8711 102.124 42.7424 102.126 42.6119C102.128 42.4815 102.105 42.3519 102.057 42.2306C102.009 42.1093 101.937 41.9986 101.846 41.9049C101.755 41.8112 101.646 41.7363 101.526 41.6845C101.406 41.6327 101.277 41.605 101.146 41.6029C101.135 41.6027 101.124 41.6027 101.113 41.6029H74.2193Z" fill="white"/>
<path d="M74.2193 35.8515C73.9581 35.8557 73.7089 35.9622 73.5256 36.1479C73.3424 36.3336 73.2397 36.5837 73.2397 36.8442C73.2397 37.1046 73.3424 37.3547 73.5256 37.5404C73.7089 37.7261 73.9581 37.8326 74.2193 37.8368H87.6495C87.7804 37.8391 87.9104 37.8156 88.0321 37.7677C88.1539 37.7199 88.265 37.6486 88.359 37.5579C88.4531 37.4672 88.5284 37.359 88.5805 37.2393C88.6325 37.1196 88.6604 36.9909 88.6626 36.8605C88.6647 36.73 88.6411 36.6005 88.593 36.4791C88.5449 36.3578 88.4732 36.2472 88.3822 36.1535C88.2911 36.0598 88.1825 35.9848 88.0624 35.933C87.9423 35.8812 87.8131 35.8535 87.6822 35.8515C87.6713 35.8513 87.6604 35.8513 87.6495 35.8515H74.2193Z" fill="white"/>
<path d="M74.2193 47.6283C73.9581 47.6326 73.7089 47.7391 73.5256 47.9248C73.3424 48.1105 73.2397 48.3605 73.2397 48.621C73.2397 48.8815 73.3424 49.1316 73.5256 49.3173C73.7089 49.503 73.9581 49.6094 74.2193 49.6137H101.113C101.244 49.6159 101.374 49.5925 101.496 49.5446C101.618 49.4967 101.729 49.4254 101.823 49.3348C101.917 49.2441 101.992 49.1358 102.044 49.0162C102.096 48.8965 102.124 48.7678 102.126 48.6373C102.128 48.5069 102.105 48.3773 102.057 48.256C102.009 48.1347 101.937 48.024 101.846 47.9303C101.755 47.8366 101.646 47.7617 101.526 47.7099C101.406 47.6581 101.277 47.6304 101.146 47.6283C101.135 47.6281 101.124 47.6281 101.113 47.6283H74.2193Z" fill="white"/>
<path d="M204.833 114.5C205.853 114.111 205.673 111.171 204.431 107.932C203.189 104.693 201.356 102.383 200.336 102.771C199.316 103.16 199.496 106.1 200.737 109.339C201.979 112.578 203.813 114.889 204.833 114.5Z" fill="#2F2E41"/>
<path d="M213.613 133.136C220.481 132.025 225.144 125.575 224.03 118.73C222.915 111.885 216.445 107.237 209.578 108.347C202.71 109.458 198.047 115.908 199.161 122.753C200.275 129.598 206.746 134.247 213.613 133.136Z" fill="#2F2E41"/>
<path d="M217.336 130.596H213.509L214.258 138.781L217.343 137.945L217.336 130.596Z" fill="#2F2E41"/>
<path d="M208.993 130.617H205.166L205.915 138.802L208.86 137.946L208.993 130.617Z" fill="#2F2E41"/>
<path d="M205.806 139.187C207.562 139.059 208.947 138.422 208.899 137.766C208.851 137.109 207.388 136.681 205.631 136.809C203.875 136.937 202.49 137.573 202.538 138.229C202.586 138.886 204.049 139.315 205.806 139.187Z" fill="#2F2E41"/>
<path d="M211.277 121.854C213.654 121.854 215.582 119.933 215.582 117.563C215.582 115.193 213.654 113.271 211.277 113.271C208.899 113.271 206.971 115.193 206.971 117.563C206.971 119.933 208.899 121.854 211.277 121.854Z" fill="white"/>
<path d="M211.277 118.993C212.069 118.993 212.712 118.353 212.712 117.563C212.712 116.773 212.069 116.132 211.277 116.132C210.484 116.132 209.841 116.773 209.841 117.563C209.841 118.353 210.484 118.993 211.277 118.993Z" fill="#3F3D56"/>
<path d="M226.497 113.171C228.564 110.382 229.527 107.597 228.649 106.95C227.77 106.303 225.383 108.04 223.316 110.829C221.249 113.618 220.286 116.403 221.164 117.05C222.043 117.697 224.43 115.96 226.497 113.171Z" fill="#2F2E41"/>
<path d="M205.449 127.216C205.449 126.203 208.066 124.203 210.969 124.203C213.872 124.203 216.594 127.055 216.594 128.067C216.594 129.08 213.872 127.871 210.969 127.871C208.066 127.871 205.449 128.229 205.449 127.216Z" fill="white"/>
<path d="M246.919 110.365L177.965 100.837C177.427 100.762 176.941 100.477 176.614 100.046C176.286 99.6143 176.144 99.071 176.218 98.5349L183.969 42.7982C184.044 42.2623 184.33 41.778 184.763 41.4516C185.196 41.1252 185.741 40.9832 186.279 41.0569L255.234 50.5852C255.771 50.6601 256.257 50.9445 256.584 51.376C256.912 51.8075 257.054 52.3509 256.98 52.8869L249.229 108.624C249.154 109.16 248.868 109.644 248.435 109.97C248.002 110.297 247.457 110.439 246.919 110.365V110.365Z" fill="black"/>
<path d="M222.217 92.9704L187.013 88.1059C186.969 88.1004 186.926 88.0908 186.883 88.0773L207.531 61.6316C207.657 61.4666 207.826 61.3381 208.018 61.2591C208.211 61.1801 208.421 61.1535 208.627 61.182C208.834 61.2105 209.029 61.2931 209.193 61.4214C209.357 61.5496 209.483 61.719 209.56 61.912L218.051 82.7471L218.458 83.7442L222.217 92.9704Z" fill="white"/>
<path opacity="0.2" d="M222.217 92.9704L210.197 91.3097L217.286 83.5823L217.796 83.0257L218.051 82.7473L218.458 83.7444L222.217 92.9704Z" fill="black"/>
<path d="M241.818 95.679L211.37 91.4717L218.458 83.7444L218.968 83.1876L228.205 73.1174C228.365 72.9661 228.554 72.8499 228.762 72.7765C228.97 72.703 229.19 72.6739 229.41 72.691C229.629 72.7082 229.843 72.7711 230.037 72.8758C230.23 72.9805 230.399 73.1247 230.534 73.2988C230.567 73.3478 230.598 73.3989 230.625 73.4518L241.818 95.679Z" fill="white"/>
<path d="M222.645 70.6094C225.553 70.6094 227.91 68.2599 227.91 65.3615C227.91 62.4631 225.553 60.1135 222.645 60.1135C219.737 60.1135 217.38 62.4631 217.38 65.3615C217.38 68.2599 219.737 70.6094 222.645 70.6094Z" fill="white"/>
<path d="M193.829 46.2223L187.455 45.3416L186.571 51.695L192.945 52.5758L193.829 46.2223Z" fill="#3F3D56"/>
<path d="M223.815 109.064C224.832 104.524 221.581 99.9357 216.553 98.8166C211.525 97.6975 206.624 100.471 205.607 105.012C204.59 109.552 207.922 111.227 212.95 112.346C217.978 113.465 222.798 113.605 223.815 109.064Z" fill="#F2F2F2"/>
<path d="M214.198 139.166C215.955 139.038 217.34 138.402 217.292 137.746C217.244 137.089 215.781 136.661 214.024 136.789C212.267 136.917 210.882 137.553 210.931 138.209C210.979 138.866 212.442 139.295 214.198 139.166Z" fill="#2F2E41"/>
</g>
<defs>
<clipPath id="clip0_140_210">
<rect width="257" height="161" fill="white"/>
</clipPath>
</defs>
</svg>
