<svg width="273" height="141" viewBox="0 0 273 141" fill="none" xmlns="http://www.w3.org/2000/svg">
<g clip-path="url(#clip0_99_98)">
<path d="M129.5 126.029C204.887 126.029 266 124.32 266 122.212C266 120.104 204.887 118.396 129.5 118.396C54.1131 118.396 -7 120.104 -7 122.212C-7 124.32 54.1131 126.029 129.5 126.029Z" fill="#E6E6E6"/>
<path d="M202.245 80.8565C202.073 80.8588 201.9 80.8612 201.725 80.8612C201.551 80.8612 201.378 80.8588 201.206 80.8565C192.069 80.6488 185.446 74.9421 187.132 68.9545L191.242 54.3478L192.281 50.6519L210.697 50.9657L211.817 54.5814L216.222 68.8129C218.088 74.8335 211.465 80.6488 202.245 80.8565Z" fill="#3F3D56"/>
<path opacity="0.2" d="M211.817 54.5814C208.677 56.3756 205.114 57.2999 201.498 57.2588C197.881 57.2178 194.341 56.2128 191.242 54.3478L192.281 50.6519L210.697 50.9657L211.817 54.5814Z" fill="black"/>
<path d="M211.039 69.4391C211.835 66.4753 214.45 62.1999 221.782 57.045C234.571 48.0536 226.942 41.3117 226.611 41.0292C225.918 40.4367 226.02 39.7714 226.85 39.5441C227.331 39.4479 227.828 39.4557 228.306 39.567C228.785 39.6783 229.234 39.8906 229.624 40.1895C230.038 40.5319 239.591 48.6864 225.16 58.831C212.173 67.9622 214.934 73.9228 214.966 73.98C215.314 74.6175 214.756 75.1276 213.718 75.1207C212.68 75.1138 211.557 74.592 211.207 73.9551C211.134 73.8204 210.298 72.1982 211.039 69.4391Z" fill="#3F3D56"/>
<path d="M193.226 82.9853C192.947 82.9853 192.67 82.9304 192.412 82.8236C192.155 82.7169 191.92 82.5604 191.723 82.3632C191.526 82.166 191.369 81.9318 191.262 81.6741C191.156 81.4164 191.101 81.1402 191.101 80.8612V71.6568C191.101 71.0935 191.325 70.5532 191.723 70.1548C192.122 69.7565 192.662 69.5327 193.226 69.5327C193.789 69.5327 194.33 69.7565 194.728 70.1548C195.127 70.5532 195.351 71.0935 195.351 71.6568V80.8612C195.351 81.1402 195.296 81.4164 195.189 81.6741C195.082 81.9318 194.926 82.166 194.728 82.3632C194.531 82.5604 194.297 82.7169 194.039 82.8236C193.781 82.9304 193.505 82.9853 193.226 82.9853Z" fill="#3F3D56"/>
<path d="M195.089 61.1335C194.972 61.387 194.807 61.6149 194.602 61.8044C194.397 61.9939 194.157 62.1413 193.895 62.238C193.634 62.3347 193.355 62.379 193.076 62.3683C192.798 62.3575 192.524 62.292 192.27 62.1754L183.905 58.3282C183.394 58.0924 182.997 57.6632 182.802 57.1351C182.607 56.607 182.629 56.0231 182.865 55.5117C183.1 55.0002 183.529 54.6032 184.057 54.4076C184.585 54.2121 185.169 54.2341 185.681 54.4689L194.046 58.3161C194.3 58.4327 194.528 58.598 194.718 58.8027C194.907 59.0074 195.055 59.2474 195.151 59.509C195.248 59.7707 195.292 60.0488 195.282 60.3275C195.271 60.6062 195.205 60.8801 195.089 61.1335Z" fill="#3F3D56"/>
<path d="M208.362 61.1335C208.479 61.3869 208.644 61.6149 208.849 61.8044C209.054 61.9939 209.294 62.1412 209.556 62.238C209.817 62.3347 210.096 62.379 210.374 62.3682C210.653 62.3575 210.927 62.2919 211.181 62.1753L219.546 58.3282C220.058 58.0927 220.455 57.6636 220.651 57.1352C220.846 56.6068 220.824 56.0225 220.588 55.5107C220.353 54.9989 219.923 54.6016 219.395 54.4063C218.866 54.2109 218.282 54.2334 217.77 54.4689L209.404 58.316C209.151 58.4326 208.923 58.598 208.733 58.8027C208.544 59.0073 208.396 59.2474 208.3 59.509C208.203 59.7706 208.158 60.0487 208.169 60.3275C208.18 60.6062 208.245 60.8801 208.362 61.1335Z" fill="#3F3D56"/>
<path d="M210.225 82.9853C210.504 82.9853 210.781 82.9304 211.038 82.8236C211.296 82.7169 211.531 82.5604 211.728 82.3632C211.925 82.166 212.082 81.9318 212.188 81.6741C212.295 81.4164 212.35 81.1402 212.35 80.8612V71.6568C212.35 71.0935 212.126 70.5532 211.728 70.1548C211.329 69.7565 210.789 69.5327 210.225 69.5327C209.662 69.5327 209.121 69.7565 208.723 70.1548C208.324 70.5532 208.1 71.0935 208.1 71.6568V80.8612C208.1 81.1402 208.155 81.4164 208.262 81.6741C208.369 81.9318 208.525 82.166 208.723 82.3632C208.92 82.5604 209.154 82.7169 209.412 82.8236C209.67 82.9304 209.946 82.9853 210.225 82.9853Z" fill="#3F3D56"/>
<path d="M219.106 23.396C219.289 23.1648 219.422 22.8973 219.495 22.6112C219.567 22.325 219.578 22.0268 219.527 21.736L218.371 14.9352L217.214 8.13442C217.152 7.76723 216.994 7.42293 216.756 7.13614C216.518 6.84935 216.209 6.63017 215.86 6.50063C215.511 6.37109 215.133 6.33575 214.766 6.39817C214.399 6.46059 214.054 6.61857 213.767 6.85622L208.454 11.2578L205.252 13.9095C203.117 13.53 200.935 13.4972 198.789 13.8121L195.706 11.2578L190.392 6.85622C190.105 6.61857 189.761 6.46059 189.393 6.39818C189.026 6.33576 188.649 6.3711 188.299 6.50064C187.95 6.63018 187.641 6.84936 187.403 7.13615C187.165 7.42294 187.007 7.76723 186.945 8.13443L185.788 14.9352L184.632 21.736C184.57 22.0934 184.602 22.4607 184.724 22.8022C182.742 25.8393 181.611 29.3519 181.447 32.9744C181.283 36.5969 182.094 40.1971 183.794 43.4004C185.494 46.6038 188.022 49.2932 191.114 51.1891C194.206 53.0849 197.751 54.1179 201.378 54.1806C205.005 54.2432 208.583 53.3332 211.739 51.5453C214.895 49.7574 217.514 47.1568 219.324 44.0141C221.133 40.8713 222.068 37.3013 222.029 33.6753C221.991 30.0493 220.982 26.4998 219.106 23.396Z" fill="#3F3D56"/>
<path d="M189.859 9.64331C189.733 9.64349 189.608 9.66617 189.49 9.71027C189.317 9.77342 189.163 9.88164 189.045 10.0238C188.927 10.166 188.849 10.3369 188.82 10.5191L187.417 18.7664C187.386 18.9482 187.404 19.1349 187.468 19.3078C187.532 19.4807 187.641 19.6336 187.783 19.7513C187.925 19.8689 188.095 19.9471 188.277 19.978C188.459 20.0089 188.646 19.9914 188.819 19.9273L196.665 17.0177C196.838 16.9536 196.991 16.8451 197.109 16.7031C197.227 16.5611 197.305 16.3907 197.336 16.2089C197.367 16.0272 197.349 15.8405 197.285 15.6676C197.221 15.4947 197.112 15.3418 196.97 15.2241L196.97 15.2239L190.526 9.88635C190.339 9.72977 190.103 9.64376 189.859 9.64331Z" fill="#E6E6E6"/>
<path d="M214.3 9.64331C214.056 9.64377 213.82 9.72978 213.633 9.88635L207.189 15.2241C207.047 15.3418 206.938 15.4947 206.874 15.6676C206.81 15.8405 206.793 16.0272 206.824 16.2089C206.854 16.3907 206.933 16.5611 207.05 16.7031C207.168 16.8451 207.321 16.9536 207.494 17.0177L215.34 19.9273C215.513 19.9914 215.7 20.0089 215.882 19.978C216.064 19.9471 216.234 19.8689 216.377 19.7513C216.519 19.6336 216.627 19.4807 216.691 19.3078C216.755 19.1349 216.773 18.9482 216.742 18.7664L215.34 10.5191C215.31 10.3369 215.232 10.166 215.114 10.0238C214.996 9.88164 214.842 9.77342 214.669 9.71027C214.551 9.66617 214.426 9.64349 214.3 9.64331Z" fill="#E6E6E6"/>
<path d="M201.725 39.5595C203.29 39.5595 204.559 38.2915 204.559 36.7274C204.559 35.1632 203.29 33.8953 201.725 33.8953C200.161 33.8953 198.892 35.1632 198.892 36.7274C198.892 38.2915 200.161 39.5595 201.725 39.5595Z" fill="#E6E6E6"/>
<path d="M201.725 36.0191C202.769 36.0191 203.614 35.7021 203.614 35.3111C203.614 34.92 202.769 34.603 201.725 34.603C200.682 34.603 199.837 34.92 199.837 35.3111C199.837 35.7021 200.682 36.0191 201.725 36.0191Z" fill="#3F3D56"/>
<path d="M200.309 38.3792H202.906V41.5653C202.906 41.7358 202.872 41.9045 202.807 42.062C202.742 42.2195 202.646 42.3626 202.526 42.4832C202.405 42.6037 202.262 42.6993 202.104 42.7645C201.947 42.8298 201.778 42.8633 201.607 42.8633C201.263 42.8633 200.933 42.7266 200.689 42.4832C200.446 42.2397 200.309 41.9096 200.309 41.5653V38.3792H200.309Z" fill="#FF6584"/>
<path d="M201.883 6.25513C201.747 6.53743 201.615 6.8228 201.49 7.114C200.025 10.5299 199.531 14.2837 200.062 17.9623C200.328 17.5767 200.607 17.1751 200.892 16.769C200.283 13.2385 200.625 9.60974 201.883 6.25513Z" fill="#3F3D56"/>
<path d="M204.008 8.85156C203.872 9.13387 203.74 9.41923 203.615 9.71043C202.15 13.1264 201.656 16.8802 202.187 20.5587C202.453 20.1732 202.732 19.7715 203.017 19.3654C202.408 15.835 202.75 12.2062 204.008 8.85156Z" fill="#3F3D56"/>
<path d="M210.559 59.8182L210.26 56.0128L209.961 52.2073C209.945 52.0019 209.875 51.8043 209.758 51.6344C209.641 51.4646 209.482 51.3284 209.295 51.2397C209.109 51.1509 208.903 51.1127 208.698 51.1289C208.492 51.145 208.294 51.215 208.125 51.3317L204.977 53.4936L202.679 55.0722C202.532 54.9003 202.35 54.7623 202.144 54.6676C201.939 54.573 201.715 54.524 201.489 54.524C201.263 54.524 201.04 54.573 200.834 54.6676C200.629 54.7623 200.446 54.9003 200.3 55.0722L198.001 53.4936L194.854 51.3317C194.684 51.215 194.487 51.145 194.281 51.1289C194.075 51.1127 193.869 51.1509 193.683 51.2397C193.497 51.3284 193.338 51.4645 193.221 51.6344C193.104 51.8043 193.034 52.0019 193.018 52.2073L192.719 56.0127L192.419 59.8182C192.403 60.0236 192.441 60.2297 192.53 60.4157C192.619 60.6018 192.755 60.7611 192.925 60.8779C193.095 60.9946 193.293 61.0645 193.498 61.0807C193.704 61.0968 193.91 61.0586 194.096 60.9699L197.543 59.3263L200.374 57.9759C200.52 58.1235 200.694 58.2407 200.885 58.3206C201.077 58.4006 201.282 58.4418 201.489 58.4418C201.697 58.4418 201.902 58.4006 202.093 58.3206C202.285 58.2407 202.458 58.1235 202.604 57.9759L205.436 59.3263L208.883 60.9699C209.069 61.0586 209.275 61.0969 209.481 61.0807C209.686 61.0645 209.884 60.9946 210.054 60.8779C210.224 60.7611 210.36 60.6018 210.449 60.4158C210.537 60.2297 210.576 60.0236 210.559 59.8182Z" fill="#1B1B27"/>
<path d="M197.948 34.367C198.339 34.367 198.656 34.05 198.656 33.659C198.656 33.2679 198.339 32.9509 197.948 32.9509C197.557 32.9509 197.239 33.2679 197.239 33.659C197.239 34.05 197.557 34.367 197.948 34.367Z" fill="#E6E6E6"/>
<path d="M205.503 34.367C205.894 34.367 206.211 34.05 206.211 33.659C206.211 33.2679 205.894 32.9509 205.503 32.9509C205.112 32.9509 204.795 33.2679 204.795 33.659C204.795 34.05 205.112 34.367 205.503 34.367Z" fill="#E6E6E6"/>
<path d="M64.6757 74.6014C64.8481 74.6037 65.0204 74.6061 65.1952 74.6061C65.3699 74.6061 65.5422 74.6037 65.7146 74.6014C74.8519 74.3937 81.4747 68.6869 79.7889 62.6993L75.6783 48.0927L74.6394 44.3967L56.2231 44.7106L55.104 48.3263L50.6982 62.5577C48.833 68.5784 55.4558 74.3937 64.6757 74.6014Z" fill="#3F3D56"/>
<path opacity="0.2" d="M55.104 48.3263C58.2441 50.1205 61.8062 51.0448 65.4229 51.0037C69.0396 50.9626 72.5798 49.9577 75.6783 48.0927L74.6394 44.3967L56.2231 44.7106L55.104 48.3263Z" fill="black"/>
<path d="M53.6444 61.4527C51.6567 59.1143 47.4632 56.3684 38.629 54.8457C23.2215 52.189 27.2307 42.8325 27.4085 42.4357C27.7817 41.6036 27.4043 41.0461 26.5576 41.1953C26.081 41.3143 25.6354 41.5338 25.2506 41.8391C24.8658 42.1443 24.5508 42.5283 24.3266 42.9652C24.0989 43.4517 18.9555 54.908 36.341 57.9046C51.9879 60.6027 52.0437 67.1711 52.0396 67.2363C51.9979 67.9614 52.7207 68.1837 53.6555 67.7337C54.5903 67.2837 55.3828 66.3313 55.4257 65.6064C55.4344 65.4532 55.4953 63.6295 53.6444 61.4527Z" fill="#3F3D56"/>
<path d="M73.695 76.7301C73.974 76.7301 74.2503 76.6751 74.5082 76.5684C74.766 76.4616 75.0002 76.3052 75.1976 76.108C75.3949 75.9107 75.5514 75.6765 75.6582 75.4188C75.765 75.1611 75.8199 74.8849 75.8199 74.606V65.4016C75.8193 64.8387 75.5951 64.2991 75.1966 63.9013C74.7982 63.5035 74.2581 63.28 73.695 63.28C73.1318 63.28 72.5917 63.5035 72.1933 63.9013C71.7949 64.2991 71.5707 64.8387 71.57 65.4016V74.606C71.57 74.8849 71.625 75.1611 71.7317 75.4188C71.8385 75.6765 71.9951 75.9107 72.1924 76.108C72.3897 76.3052 72.624 76.4616 72.8818 76.5684C73.1396 76.6751 73.4159 76.7301 73.695 76.7301Z" fill="#3F3D56"/>
<path d="M71.8318 54.8783C71.9485 55.1318 72.1139 55.3597 72.3187 55.5492C72.5234 55.7387 72.7635 55.886 73.0253 55.9828C73.287 56.0795 73.5652 56.1238 73.8441 56.1131C74.1229 56.1023 74.3969 56.0368 74.6504 55.9202L83.0157 52.073C83.2695 51.9566 83.4979 51.7913 83.6878 51.5867C83.8776 51.382 84.0253 51.1419 84.1223 50.8802C84.2192 50.6184 84.2637 50.3401 84.253 50.0612C84.2423 49.7823 84.1767 49.5082 84.06 49.2546C83.9433 49.001 83.7777 48.7729 83.5728 48.5833C83.3678 48.3938 83.1275 48.2464 82.8655 48.1498C82.6036 48.0531 82.3251 48.009 82.0461 48.02C81.7671 48.0309 81.4929 48.0968 81.2394 48.2137L72.8741 52.0609C72.6206 52.1775 72.3925 52.3428 72.203 52.5475C72.0134 52.7522 71.866 52.9922 71.7692 53.2538C71.6724 53.5155 71.6281 53.7936 71.6389 54.0723C71.6496 54.351 71.7152 54.6249 71.8318 54.8783Z" fill="#3F3D56"/>
<path d="M58.5585 54.8783C58.4418 55.1318 58.2764 55.3597 58.0716 55.5492C57.8669 55.7387 57.6268 55.886 57.365 55.9828C57.1033 56.0795 56.8251 56.1238 56.5462 56.1131C56.2674 56.1023 55.9934 56.0368 55.7399 55.9202L47.3746 52.073C47.1208 51.9566 46.8924 51.7913 46.7026 51.5867C46.5127 51.382 46.365 51.1419 46.2681 50.8802C46.1711 50.6184 46.1266 50.3401 46.1373 50.0612C46.148 49.7823 46.2136 49.5082 46.3303 49.2546C46.447 49.001 46.6126 48.7729 46.8175 48.5833C47.0225 48.3938 47.2628 48.2464 47.5248 48.1498C47.7867 48.0531 48.0652 48.009 48.3442 48.02C48.6233 48.0309 48.8974 48.0968 49.1509 48.2137L57.5162 52.0609C57.7697 52.1775 57.9978 52.3428 58.1874 52.5475C58.3769 52.7522 58.5243 52.9922 58.6211 53.2538C58.7179 53.5155 58.7622 53.7936 58.7514 54.0723C58.7407 54.351 58.6751 54.6249 58.5585 54.8783Z" fill="#3F3D56"/>
<path d="M56.6953 76.7301C56.4163 76.7301 56.14 76.6751 55.8821 76.5684C55.6243 76.4616 55.3901 76.3052 55.1927 76.108C54.9954 75.9107 54.8389 75.6765 54.7321 75.4188C54.6253 75.1611 54.5704 74.8849 54.5704 74.606V65.4016C54.5711 64.8387 54.7952 64.2991 55.1937 63.9013C55.5921 63.5035 56.1322 63.28 56.6953 63.28C57.2585 63.28 57.7986 63.5035 58.197 63.9013C58.5954 64.2991 58.8196 64.8387 58.8203 65.4016V74.606C58.8203 74.8849 58.7653 75.1611 58.6585 75.4188C58.5518 75.6765 58.3952 75.9107 58.1979 76.108C58.0006 76.3052 57.7663 76.4616 57.5085 76.5684C57.2507 76.6751 56.9744 76.7301 56.6953 76.7301Z" fill="#3F3D56"/>
<path d="M82.1963 16.5473C82.3187 16.2059 82.3506 15.8385 82.2888 15.4811L81.1323 8.68033L79.9758 1.87955C79.9134 1.51236 79.7554 1.16806 79.5176 0.881273C79.2799 0.594482 78.9708 0.375305 78.6214 0.245763C78.2721 0.116222 77.8948 0.0808806 77.5274 0.143299C77.1601 0.205717 76.8156 0.363694 76.5287 0.601346L71.2149 5.00289L68.1312 7.55725C65.9857 7.24228 63.8034 7.27517 61.6684 7.65466L58.467 5.00288L53.1533 0.601337C52.8664 0.363684 52.5219 0.205708 52.1546 0.143289C51.7872 0.0808708 51.4099 0.116208 51.0606 0.245749C50.7112 0.375291 50.4021 0.594472 50.1644 0.881263C49.9266 1.16805 49.7686 1.51235 49.7062 1.87954L48.5496 8.68033L47.3931 15.4811C47.3421 15.7719 47.3533 16.0702 47.426 16.3563C47.4987 16.6424 47.6312 16.9099 47.8149 17.1411C45.9366 20.2456 44.9251 23.7966 44.8855 27.4244C44.8459 31.0523 45.7797 34.6244 47.5897 37.7691C49.3997 40.9139 52.0197 43.5163 55.1772 45.3055C58.3347 47.0947 61.9141 48.0054 65.5431 47.9427C69.1721 47.88 72.718 46.8463 75.8117 44.9491C78.9055 43.0519 81.434 40.3606 83.1343 37.1552C84.8345 33.9499 85.6443 30.3476 85.4793 26.7233C85.3144 23.099 84.1807 19.5851 82.1963 16.5473H82.1963Z" fill="#3F3D56"/>
<path d="M76.3943 3.63073L69.9505 8.96829L69.9504 8.96852C69.8083 9.08617 69.6998 9.23911 69.6357 9.41198C69.5715 9.58485 69.554 9.77156 69.5849 9.95333C69.6158 10.1351 69.6941 10.3055 69.8118 10.4475C69.9295 10.5895 70.0825 10.698 70.2554 10.7621L78.1018 13.6717C78.2748 13.7358 78.4616 13.7533 78.6434 13.7224C78.8253 13.6915 78.9958 13.6133 79.1379 13.4957C79.2799 13.378 79.3885 13.225 79.4527 13.0522C79.5168 12.8793 79.5343 12.6925 79.5034 12.5107L78.101 4.26351C78.0711 4.0813 77.9932 3.91034 77.8753 3.76818C77.7574 3.62603 77.6038 3.51781 77.4302 3.45465C77.3122 3.41055 77.1872 3.38787 77.0612 3.3877C76.8173 3.38815 76.5813 3.47416 76.3943 3.63073Z" fill="#E6E6E6"/>
<path d="M52.2517 3.45465C52.0781 3.51781 51.9245 3.62602 51.8066 3.76818C51.6888 3.91034 51.6109 4.0813 51.581 4.26351L50.1785 12.5107C50.1476 12.6925 50.1651 12.8793 50.2293 13.0522C50.2935 13.225 50.402 13.378 50.5441 13.4957C50.6861 13.6133 50.8567 13.6915 51.0385 13.7224C51.2204 13.7533 51.4072 13.7358 51.5802 13.6717L59.4266 10.7621C59.5995 10.698 59.7525 10.5895 59.8702 10.4475C59.9879 10.3055 60.0661 10.1351 60.097 9.95333C60.128 9.77156 60.1105 9.58485 60.0463 9.41198C59.9822 9.23911 59.8736 9.08617 59.7316 8.96852L53.2877 3.63073C53.1007 3.47416 52.8647 3.38815 52.6207 3.3877C52.4947 3.38788 52.3698 3.41055 52.2517 3.45465Z" fill="#E6E6E6"/>
<path d="M65.1952 33.3044C66.7599 33.3044 68.0284 32.0364 68.0284 30.4723C68.0284 28.9081 66.7599 27.6401 65.1952 27.6401C63.6304 27.6401 62.3619 28.9081 62.3619 30.4723C62.3619 32.0364 63.6304 33.3044 65.1952 33.3044Z" fill="#E6E6E6"/>
<path d="M65.1952 29.764C66.2383 29.764 67.084 29.447 67.084 29.0559C67.084 28.6649 66.2383 28.3479 65.1952 28.3479C64.152 28.3479 63.3063 28.6649 63.3063 29.0559C63.3063 29.447 64.152 29.764 65.1952 29.764Z" fill="#3F3D56"/>
<path d="M65.3132 36.6084C65.1427 36.6084 64.9738 36.5748 64.8163 36.5096C64.6587 36.4444 64.5155 36.3487 64.395 36.2282C64.2744 36.1077 64.1787 35.9646 64.1135 35.8071C64.0482 35.6496 64.0146 35.4808 64.0146 35.3103V32.1242H66.6118V35.3103C66.6118 35.4808 66.5782 35.6496 66.5129 35.8071C66.4477 35.9646 66.352 36.1077 66.2314 36.2282C66.1109 36.3487 65.9677 36.4444 65.8101 36.5096C65.6526 36.5748 65.4837 36.6084 65.3132 36.6084Z" fill="#FF6584"/>
<path d="M65.0375 0C65.1737 0.282307 65.306 0.567668 65.4303 0.858864C66.8956 4.2748 67.3898 8.02859 66.8584 11.7072C66.5926 11.3216 66.3132 10.92 66.029 10.5139C66.6376 6.98338 66.2954 3.35461 65.0375 0Z" fill="#3F3D56"/>
<path d="M62.9126 2.59595C63.0488 2.87826 63.181 3.16361 63.3054 3.45481C64.7706 6.87075 65.2648 10.6245 64.7334 14.3031C64.4676 13.9176 64.1882 13.5159 63.9041 13.1098C64.5126 9.57933 64.1704 5.95056 62.9126 2.59595Z" fill="#3F3D56"/>
<path d="M56.3612 12.2613L56.6605 8.45586L56.9599 4.65045C56.976 4.44498 57.046 4.24738 57.1628 4.07752C57.2796 3.90766 57.439 3.77151 57.6251 3.68277C57.8112 3.59403 58.0174 3.55582 58.2229 3.57197C58.4285 3.58813 58.6261 3.65809 58.7961 3.77482L61.9433 5.93667L64.2416 7.51531C64.3884 7.34341 64.5708 7.20537 64.7762 7.11072C64.9816 7.01607 65.2051 6.96707 65.4313 6.96707C65.6574 6.96707 65.8809 7.01607 66.0863 7.11072C66.2917 7.20537 66.4741 7.34341 66.621 7.51531L68.9192 5.93667L72.0665 3.77482C72.2364 3.65809 72.4341 3.58813 72.6396 3.57197C72.8452 3.55582 73.0514 3.59403 73.2375 3.68277C73.4235 3.77151 73.583 3.90766 73.6998 4.07752C73.8165 4.24738 73.8865 4.44498 73.9027 4.65045L74.202 8.45586L74.5014 12.2613C74.5175 12.4667 74.4793 12.6728 74.3905 12.8589C74.3018 13.0449 74.1656 13.2042 73.9956 13.321C73.8257 13.4377 73.628 13.5077 73.4225 13.5238C73.2169 13.54 73.0107 13.5018 72.8247 13.413L69.378 11.7695L66.5461 10.419C66.4004 10.5666 66.2268 10.6838 66.0354 10.7638C65.8441 10.8437 65.6387 10.8849 65.4313 10.8849C65.2238 10.8849 65.0184 10.8437 64.8271 10.7638C64.6357 10.6838 64.4621 10.5666 64.3164 10.419L61.4845 11.7695L58.0379 13.413C57.8518 13.5018 57.6456 13.54 57.4401 13.5238C57.2345 13.5077 57.0368 13.4377 56.8669 13.321C56.697 13.2043 56.5608 13.0449 56.472 12.8589C56.3832 12.6728 56.345 12.4667 56.3612 12.2613Z" fill="#1B1B27"/>
<path d="M68.2645 27.4038C68.2645 27.7949 68.5817 27.4038 68.9729 27.4038C69.3641 27.4038 69.6812 27.7949 69.6812 27.4038C69.6808 27.2163 69.606 27.0366 69.4732 26.9041C69.3404 26.7717 69.1605 26.6973 68.9729 26.6973C68.7853 26.6973 68.6053 26.7717 68.4725 26.9041C68.3397 27.0366 68.2649 27.2163 68.2645 27.4038Z" fill="#E6E6E6"/>
<path d="M62.1258 27.4038C62.1258 27.7949 61.8086 27.4038 61.4174 27.4038C61.0263 27.4038 60.7091 27.7949 60.7091 27.4038C60.7095 27.2163 60.7843 27.0366 60.9171 26.9041C61.0499 26.7717 61.2299 26.6973 61.4175 26.6973C61.6051 26.6973 61.785 26.7717 61.9178 26.9041C62.0506 27.0366 62.1254 27.2163 62.1258 27.4038Z" fill="#E6E6E6"/>
<path d="M140.711 80.8627V76.3621H118.2V76.6435V80.8627V117.148V121.649H122.702H140.711V117.148H122.702V80.8627H140.711Z" fill="#3F3D56"/>
<path d="M151.686 76.3621V121.649H174.198V76.3621H151.686ZM169.695 117.148H156.188V80.8626H169.695V117.148Z" fill="#1B1B27"/>
<path d="M89.2156 117.148V76.6433H84.7131V117.148V121.649H89.2156H107.225V117.148H89.2156Z" fill="#1B1B27"/>
<path d="M74.5829 80.8627V76.3621H52.0711V76.6435V80.8627V96.6146V101.115V117.148V121.649H56.5735H74.5829V117.148H56.5735V101.115H74.5829V96.6146H56.5735V80.8627H74.5829Z" fill="#3F3D56"/>
<path d="M250.738 80.8627V76.3621H228.226V76.6435V80.8627V96.6146V101.115V117.148V121.649H232.729H250.738V117.148H232.729V101.115H250.738V96.6146H232.729V80.8627H250.738Z" fill="#1B1B27"/>
<path d="M36.8756 76.6435V113.84L25.0043 101.973L24.9773 102.001L24.9521 101.976L12.8161 114.107V76.5029H8.31372V121.508H12.8161V120.471L24.9794 108.313L36.8756 120.204V121.649H41.378V76.6435H36.8756Z" fill="#3F3D56"/>
<path d="M213.312 76.6435V77.6803L201.149 89.8387L189.252 77.9474V76.5029H184.75V121.508H189.252V84.312L201.124 96.1784L201.151 96.1511L201.176 96.176L213.312 84.045V121.649H217.814V76.6435H213.312Z" fill="#3F3D56"/>
<path d="M95.8885 48.9194C97.4147 48.9194 98.652 47.6826 98.652 46.157C98.652 44.6313 97.4147 43.3945 95.8885 43.3945C94.3622 43.3945 93.1249 44.6313 93.1249 46.157C93.1249 47.6826 94.3622 48.9194 95.8885 48.9194Z" fill="#1B1B27"/>
<path d="M27.721 79.613C29.2473 79.613 30.4846 78.3762 30.4846 76.8506C30.4846 75.3249 29.2473 74.0881 27.721 74.0881C26.1948 74.0881 24.9575 75.3249 24.9575 76.8506C24.9575 78.3762 26.1948 79.613 27.721 79.613Z" fill="#1B1B27"/>
<path d="M82.3778 141C83.9041 141 85.1413 139.763 85.1413 138.238C85.1413 136.712 83.9041 135.475 82.3778 135.475C80.8515 135.475 79.6143 136.712 79.6143 138.238C79.6143 139.763 80.8515 141 82.3778 141Z" fill="#1B1B27"/>
<path d="M151.773 57.2065C153.3 57.2065 154.537 55.9697 154.537 54.4441C154.537 52.9184 153.3 51.6816 151.773 51.6816C150.247 51.6816 149.01 52.9184 149.01 54.4441C149.01 55.9697 150.247 57.2065 151.773 57.2065Z" fill="#1B1B27"/>
<path d="M233.145 138.544C234.671 138.544 235.908 137.308 235.908 135.782C235.908 134.256 234.671 133.02 233.145 133.02C231.618 133.02 230.381 134.256 230.381 135.782C230.381 137.308 231.618 138.544 233.145 138.544Z" fill="#1B1B27"/>
<path d="M235.908 66.1076C237.434 66.1076 238.672 64.8708 238.672 63.3452C238.672 61.8195 237.434 60.5828 235.908 60.5828C234.382 60.5828 233.145 61.8195 233.145 63.3452C233.145 64.8708 234.382 66.1076 235.908 66.1076Z" fill="#1B1B27"/>
<path d="M200.903 115.831C202.429 115.831 203.667 114.594 203.667 113.069C203.667 111.543 202.429 110.306 200.903 110.306C199.377 110.306 198.14 111.543 198.14 113.069C198.14 114.594 199.377 115.831 200.903 115.831Z" fill="#1B1B27"/>
</g>
<defs>
<clipPath id="clip0_99_98">
<rect width="273" height="141" fill="white"/>
</clipPath>
</defs>
</svg>
